HIERARCHY
ROOT Hips
{
	OFFSET 0.000000 0.000000 0.000000 
	CHANNELS 6 Xposition Yposition Zposition Zrotation Yrotation Xrotation
	JOINT LeftUpLeg
	{
		OFFSET 1.363060 -1.794630 0.839290 
		CHANNELS 3 Zrotation Yrotation Xrotation
		JOINT LeftLeg
		{
			OFFSET 2.448110 -6.726130 0.000000 
			CHANNELS 3 Zrotation Yrotation Xrotation
			JOINT LeftFoot
			{
				OFFSET 2.562200 -7.039590 0.000000 
				CHANNELS 3 Zrotation Yrotation Xrotation
				JOINT LeftToeBase
				{
					OFFSET 0.157640 -0.433110 2.322550 
					CHANNELS 3 Zrotation Yrotation Xrotation
					End Site
					{
						OFFSET 0.000000 0.000000 0.000000 
					}
				}
			}
		}
	}
	JOINT RightUpLeg
	{
		OFFSET -1.305520 -1.794630 0.839290 
		CHANNELS 3 Zrotation Yrotation Xrotation
		JOINT RightLeg
		{
			OFFSET -2.542530 -6.985550 0.000000 
			CHANNELS 3 Zrotation Yrotation Xrotation
			JOINT RightFoot
			{
				OFFSET -2.568260 -7.056230 0.000000 
				CHANNELS 3 Zrotation Yrotation Xrotation
				JOINT RightToeBase
				{
					OFFSET -0.164730 -0.452590 2.363150 
					CHANNELS 3 Zrotation Yrotation Xrotation
					End Site
					{
						OFFSET 0.000000 0.000000 0.000000 
					}
				}
			}
		}
	}
	JOINT Spine
	{
		OFFSET 0.028270 2.035590 -0.193380 
		CHANNELS 3 Zrotation Yrotation Xrotation
		JOINT Spine1
		{
			OFFSET 0.056720 2.048850 -0.042750 
			CHANNELS 3 Zrotation Yrotation Xrotation
			JOINT Neck1
			{
				OFFSET -0.054170 1.746240 0.172020 
				CHANNELS 3 Zrotation Yrotation Xrotation
				JOINT Head
				{
					OFFSET 0.104070 1.761360 -0.123970 
					CHANNELS 3 Zrotation Yrotation Xrotation
					End Site
					{
						OFFSET 0.000000 0.000000 0.000000 
					}
				}
			}
			JOINT LeftArm
			{
				OFFSET 3.362410 1.200890 -0.311210 
				CHANNELS 3 Zrotation Yrotation Xrotation
				JOINT LeftForeArm
				{
					OFFSET 4.983000 -0.000000 -0.000000 
					CHANNELS 3 Zrotation Yrotation Xrotation
					JOINT LeftHand
					{
						OFFSET 3.483560 -0.000000 -0.000000 
						CHANNELS 3 Zrotation Yrotation Xrotation
						JOINT LeftHandIndex1
						{
							OFFSET 0.715260 -0.000000 -0.000000 
							CHANNELS 3 Zrotation Yrotation Xrotation
							End Site
							{
								OFFSET 0.000000 0.000000 0.000000 
							}
						}
					}
				}
			}
			JOINT RightArm
			{
				OFFSET -3.136600 1.374050 -0.404650 
				CHANNELS 3 Zrotation Yrotation Xrotation
				JOINT RightForeArm
				{
					OFFSET -5.241900 -0.000000 -0.000000 
					CHANNELS 3 Zrotation Yrotation Xrotation
					JOINT RightHand
					{
						OFFSET -3.444170 -0.000000 -0.000000 
						CHANNELS 3 Zrotation Yrotation Xrotation
						JOINT RightHandIndex1
						{
							OFFSET -0.622530 -0.000000 -0.000000 
							CHANNELS 3 Zrotation Yrotation Xrotation
							End Site
							{
								OFFSET 0.000000 0.000000 0.000000 
							}
						}
					}
				}
			}
		}
	}
}
MOTION
Frames: 10
Frame Time: 0.041667
8.169854 17.523763 -1.381601 16.061300 83.754371 10.036427 -23.712485 7.956352 20.569221 -1.405215 3.893778 10.037454 0.431891 4.129487 -17.189884 0.244100 -3.179300 -8.778400 9.759986 -14.857015 7.956653 -1.309140 -8.405721 19.327547 -0.750689 -4.934691 -20.466662 -0.078200 -1.803600 4.963100 -1.161792 2.677225 0.180600 1.438065 0.736725 7.039648 10.822743 1.621815 10.367727 1.787200 2.281600 11.057800 -71.611755 -40.642386 52.078762 49.340443 -52.646198 -26.432440 -0.531932 0.557315 -6.476420 -7.125000 0.000000 0.000000 73.903770 -31.742622 50.599274 -54.656041 56.452566 -25.435888 1.637185 -1.344939 -7.325361 7.125000 0.000000 0.000000 
8.260001 17.519475 -1.365062 18.050068 83.932283 11.996472 -23.825389 8.089580 20.936125 -1.403358 3.859264 9.958511 0.424714 4.015863 -16.942343 0.296600 -3.502000 -9.679600 9.359985 -15.059031 8.207047 -1.291330 -8.390708 19.291204 -0.768616 -4.818403 -20.629777 -0.126100 -2.289400 6.306200 -1.100504 2.571306 0.129491 1.672658 0.659865 7.002097 10.646350 1.751539 10.536834 1.719700 2.322100 11.154800 -71.195562 -40.425116 52.310566 49.987381 -52.906274 -26.943146 -0.533010 0.568775 -6.219924 -7.125000 0.000000 0.000000 73.178748 -31.715192 51.266952 -55.833395 56.808534 -26.286452 1.646067 -1.307627 -7.518757 7.125000 0.000000 0.000000 
8.354844 17.515596 -1.349545 21.025148 84.056136 14.960124 -24.143618 8.147795 21.246918 -1.399600 3.869634 9.979526 0.441173 3.767667 -16.799518 0.343300 -3.764700 -10.415700 8.796906 -15.161551 8.515652 -1.277204 -8.383869 19.304225 -0.791997 -4.849130 -20.909573 -0.163100 -2.601700 7.171800 -1.051949 2.481177 0.100561 1.951763 0.578644 7.082969 10.502324 1.925002 10.703302 1.684400 2.376100 11.216100 -70.750076 -40.061408 52.495316 50.769343 -53.222207 -27.569599 -0.533567 0.578996 -6.090877 -7.125000 0.000000 0.000000 72.412549 -31.565823 52.010655 -56.844227 57.106034 -27.034527 1.652305 -1.274994 -7.751987 7.125000 0.000000 0.000000 
8.448053 17.510083 -1.336681 22.903223 84.028338 16.920387 -24.416615 8.125039 21.388417 -1.388984 3.936114 10.148677 0.469928 3.524188 -16.818445 0.336900 -3.730100 -10.318500 8.447948 -15.082898 8.691674 -1.272232 -8.372125 19.309168 -0.806623 -4.991969 -21.130595 -0.198800 -2.871200 7.920300 -1.008880 2.449656 0.031488 2.134177 0.547894 7.076021 10.302560 1.872175 10.953112 1.604500 2.336100 11.365900 -70.388898 -39.476593 52.708710 51.648188 -53.558833 -28.274308 -0.531569 0.590854 -5.837091 -7.125000 0.000000 0.000000 71.587440 -31.571572 52.762765 -58.421766 57.548803 -28.214050 1.680048 -1.220932 -8.247080 7.125000 0.000000 0.000000 
8.539731 17.503753 -1.317998 22.743789 84.000026 16.840082 -24.336644 8.123518 21.567273 -1.371252 3.974965 10.279468 0.509354 3.208475 -16.868556 0.266500 -3.320700 -9.172900 8.494497 -14.995108 8.873440 -1.270775 -8.373047 19.308398 -0.821738 -4.968110 -21.325487 -0.236900 -3.132600 8.648000 -0.947418 2.434305 -0.060201 2.234094 0.542894 6.945578 10.080208 1.830621 11.241983 1.495500 2.313600 11.560300 -70.039210 -38.777575 52.938965 52.404928 -53.832481 -28.878710 -0.529187 0.605367 -5.323805 -7.125000 0.000000 0.000000 70.884700 -31.679242 53.372914 -60.317264 58.023683 -29.617264 1.712934 -1.157354 -8.715409 7.125000 0.000000 0.000000 
8.634267 17.500282 -1.296661 22.680903 84.164503 16.813479 -24.165346 8.071951 21.816259 -1.348831 4.022025 10.449589 0.526751 2.951338 -16.736231 0.277100 -3.385500 -9.354000 8.564723 -15.061351 9.245938 -1.253957 -8.368420 19.257803 -0.843135 -4.888970 -21.601899 -0.256600 -3.259100 9.000800 -0.871850 2.392069 -0.091412 2.353323 0.501872 7.014850 9.822444 1.832241 11.513738 1.344300 2.313100 11.751300 -69.708815 -38.196548 53.138188 53.114945 -54.092188 -29.451609 -0.525134 0.621710 -4.801717 -7.125000 0.000000 0.000000 70.318161 -31.599732 53.781726 -61.834310 58.364890 -30.734517 1.731129 -1.107740 -8.573165 7.125000 0.000000 0.000000 
8.728804 17.497015 -1.275937 22.852664 84.470591 17.053094 -23.869023 8.081576 21.930060 -1.310574 4.113709 10.746919 0.517248 2.703931 -16.308088 0.375500 -3.935900 -10.896500 8.716834 -15.077074 9.652762 -1.234977 -8.368620 19.212190 -0.870553 -4.970502 -22.038314 -0.256200 -3.256600 8.994000 -0.779421 2.297887 -0.136902 2.485516 0.441689 7.022198 9.436263 1.821560 11.762547 1.097700 2.294300 11.894800 -69.562799 -37.392974 53.381979 53.985187 -54.403478 -30.156641 -0.519536 0.637883 -4.545468 -7.125000 0.000000 0.000000 69.754497 -31.432310 54.120845 -62.956919 58.587617 -31.564786 1.740296 -1.070173 -8.119201 7.125000 0.000000 0.000000 
8.818032 17.490890 -1.256641 24.396614 84.768754 18.748211 -23.664481 8.176119 21.721792 -1.248458 4.307570 11.296886 0.535269 2.182196 -15.876558 0.474900 -4.419600 -12.260200 8.599241 -15.190067 9.910470 -1.221750 -8.378093 19.225329 -0.904280 -5.027652 -22.478538 -0.251700 -3.227900 8.913800 -0.680175 2.148992 -0.241283 2.704780 0.368826 6.818144 8.888807 1.915165 12.053109 0.763500 2.305800 12.075400 -69.700039 -36.263497 53.612137 54.814204 -54.684006 -30.824470 -0.516162 0.654793 -4.351626 -7.125000 0.000000 0.000000 69.184648 -31.285384 54.350244 -64.009247 58.757628 -32.342101 1.746931 -1.033338 -7.761067 7.125000 0.000000 0.000000 
8.908791 17.485070 -1.238061 26.428216 85.025000 20.939206 -23.586642 8.129411 21.380138 -1.173098 4.601072 12.108619 0.558735 1.738745 -15.617204 0.587300 -4.906700 -13.642600 8.379998 -15.342374 10.260799 -1.183459 -8.312127 19.023528 -0.920571 -5.251886 -22.807455 -0.228200 -3.074900 8.487300 -0.570095 1.993203 -0.329530 3.038216 0.270463 6.730634 8.378830 2.047861 12.445513 0.485700 2.334200 12.368000 -69.938435 -35.046182 53.663301 55.528666 -54.921493 -31.404304 -0.514860 0.674511 -4.079688 -7.125000 0.000000 0.000000 68.497620 -31.058101 54.522856 -65.378993 58.970450 -33.382137 1.763913 -0.976294 -7.744126 7.125000 0.000000 0.000000 
9.004757 17.479251 -1.219991 28.826944 85.154428 23.397112 -23.659967 8.067066 21.060774 -1.085397 4.960555 13.093366 0.582209 1.389986 -15.476484 0.612500 -5.008900 -13.933900 8.023722 -15.525392 10.882178 -1.091532 -8.086043 18.355441 -0.876220 -5.928927 -22.747689 -0.110500 -2.143800 5.903200 -0.506091 1.875984 -0.430930 3.224362 0.217339 6.565936 8.102503 2.147984 12.849870 0.374800 2.363100 12.596300 -70.124408 -33.557285 53.727878 56.279397 -55.165663 -32.020107 -0.516305 0.694275 -4.059901 -7.125000 0.000000 0.000000 67.936090 -30.851096 54.673257 -66.853596 59.190055 -34.502843 1.789905 -0.906967 -7.892582 7.125000 0.000000 0.000000 
